<svg id="export-svg" width="100%" xmlns="http://www.w3.org/2000/svg" class="flowchart" style="max-width: 1022.234375px;" viewBox="0 0 1022.234375 671.5225830078125" role="graphics-document document" aria-roledescription="flowchart-v2"><style xmlns="http://www.w3.org/1999/xhtml">p {margin: 0;}</style><style>#export-svg{font-size:13px;fill:#18181B;}@keyframes edge-animation-frame{from{stroke-dashoffset:0;}}@keyframes dash{to{stroke-dashoffset:0;}}#export-svg .edge-animation-slow{stroke-dasharray:9,5!important;stroke-dashoffset:900;animation:dash 50s linear infinite;stroke-linecap:round;}#export-svg .edge-animation-fast{stroke-dasharray:9,5!important;stroke-dashoffset:900;animation:dash 20s linear infinite;stroke-linecap:round;}#export-svg .error-icon{fill:hsl(240, 9.0909090909%, 100%);}#export-svg .error-text{fill:#000000;stroke:#000000;}#export-svg .edge-thickness-normal{stroke-width:1px;}#export-svg .edge-thickness-thick{stroke-width:3.5px;}#export-svg .edge-pattern-solid{stroke-dasharray:0;}#export-svg .edge-thickness-invisible{stroke-width:0;fill:none;}#export-svg .edge-pattern-dashed{stroke-dasharray:3;}#export-svg .edge-pattern-dotted{stroke-dasharray:2;}#export-svg .marker{fill:#71717A;stroke:#71717A;}#export-svg .marker.cross{stroke:#71717A;}#export-svg svg{font-size:13px;}#export-svg p{margin:0;}#export-svg .label{color:#18181B;}#export-svg .cluster-label text{fill:#000000;}#export-svg .cluster-label span{color:#000000;}#export-svg .cluster-label span p{background-color:transparent;}#export-svg .label text,#export-svg span{fill:#18181B;color:#18181B;}#export-svg .node rect,#export-svg .node circle,#export-svg .node ellipse,#export-svg .node polygon,#export-svg .node path{fill:#FAFAF9;stroke:#E4E4E7;stroke-width:1px;}#export-svg .rough-node .label text,#export-svg .node .label text,#export-svg .image-shape .label,#export-svg .icon-shape .label{text-anchor:middle;}#export-svg .node .katex path{fill:#000;stroke:#000;stroke-width:1px;}#export-svg .rough-node .label,#export-svg .node .label,#export-svg .image-shape .label,#export-svg .icon-shape .label{text-align:center;}#export-svg .node.clickable{cursor:pointer;}#export-svg .root .anchor path{fill:#71717A!important;stroke-width:0;stroke:#71717A;}#export-svg .arrowheadPath{fill:#050506;}#export-svg .edgePath .path{stroke:#71717A;stroke-width:1px;}#export-svg .flowchart-link{stroke:#71717A;fill:none;}#export-svg .edgeLabel{background-color:#FAFAF9;text-align:center;}#export-svg .edgeLabel p{background-color:#FAFAF9;}#export-svg .edgeLabel rect{opacity:0.5;background-color:#FAFAF9;fill:#FAFAF9;}#export-svg .labelBkg{background-color:rgba(250, 250, 249, 0.5);}#export-svg .cluster rect{fill:transparent;stroke:#A1A1AA;stroke-width:1px;}#export-svg .cluster text{fill:#000000;}#export-svg .cluster span{color:#000000;}#export-svg div.mermaidTooltip{position:absolute;text-align:center;max-width:200px;padding:2px;font-size:12px;background:hsl(240, 9.0909090909%, 100%);border:1px solid hsl(240, 0%, 90%);border-radius:2px;pointer-events:none;z-index:100;}#export-svg .flowchartTitleText{text-anchor:middle;font-size:18px;fill:#18181B;}#export-svg rect.text{fill:none;stroke-width:0;}#export-svg .icon-shape,#export-svg .image-shape{background-color:#FAFAF9;text-align:center;}#export-svg .icon-shape p,#export-svg .image-shape p{background-color:#FAFAF9;padding:2px;}#export-svg .icon-shape .label rect,#export-svg .image-shape .label rect{opacity:0.5;background-color:#FAFAF9;fill:#FAFAF9;}#export-svg .label-icon{display:inline-block;height:1em;overflow:visible;vertical-align:-0.125em;}#export-svg .node .label-icon path{fill:currentColor;stroke:revert;stroke-width:revert;}#export-svg .node .neo-node{stroke:#E4E4E7;}#export-svg [data-look="neo"].node rect,#export-svg [data-look="neo"].cluster rect,#export-svg [data-look="neo"].node polygon{stroke:url(#export-svg-gradient);filter:drop-shadow( 1px 2px 2px rgba(185,185,185,1));}#export-svg [data-look="neo"].node path{stroke:url(#export-svg-gradient);stroke-width:1px;}#export-svg [data-look="neo"].node .outer-path{filter:drop-shadow( 1px 2px 2px rgba(185,185,185,1));}#export-svg [data-look="neo"].node .neo-line path{stroke:#E4E4E7;filter:none;}#export-svg [data-look="neo"].node circle{stroke:url(#export-svg-gradient);filter:drop-shadow( 1px 2px 2px rgba(185,185,185,1));}#export-svg [data-look="neo"].node circle .state-start{fill:#000000;}#export-svg [data-look="neo"].icon-shape .icon{fill:url(#export-svg-gradient);filter:drop-shadow( 1px 2px 2px rgba(185,185,185,1));}#export-svg [data-look="neo"].icon-shape .icon-neo path{stroke:url(#export-svg-gradient);filter:drop-shadow( 1px 2px 2px rgba(185,185,185,1));}#export-svg :root{--mermaid-font-family:"trebuchet ms",verdana,arial,sans-serif;}#export-svg .accent&gt;*{stroke:#B45309!important;color:#B45309!important;stroke-width:2px!important;}#export-svg .accent span{stroke:#B45309!important;color:#B45309!important;stroke-width:2px!important;}#export-svg .accent tspan{fill:#B45309!important;}</style><g><marker id="export-svg_flowchart-v2-pointEnd" class="marker flowchart-v2" viewBox="0 0 11.5 14" refX="7.75" refY="7" markerUnits="userSpaceOnUse" markerWidth="10.5" markerHeight="14" orient="auto"><path d="M 0 0 L 11.5 7 L 0 14 z" class="arrowMarkerPath" style="stroke-width: 0; stroke-dasharray: 1, 0;"/></marker><marker id="export-svg_flowchart-v2-pointStart" class="marker flowchart-v2" viewBox="0 0 11.5 14" refX="4" refY="7" markerUnits="userSpaceOnUse" markerWidth="11.5" markerHeight="14" orient="auto"><polygon points="0,7 11.5,14 11.5,0" class="arrowMarkerPath" style="stroke-width: 0; stroke-dasharray: 1, 0;"/></marker><marker id="export-svg_flowchart-v2-pointEnd-margin" class="marker flowchart-v2" viewBox="0 0 11.5 14" refX="11.5" refY="7" markerUnits="userSpaceOnUse" markerWidth="10.5" markerHeight="14" orient="auto"><path d="M 0 0 L 11.5 7 L 0 14 z" class="arrowMarkerPath" style="stroke-width: 0; stroke-dasharray: 1, 0;"/></marker><marker id="export-svg_flowchart-v2-pointStart-margin" class="marker flowchart-v2" viewBox="0 0 11.5 14" refX="1" refY="7" markerUnits="userSpaceOnUse" markerWidth="11.5" markerHeight="14" orient="auto"><polygon points="0,7 11.5,14 11.5,0" class="arrowMarkerPath" style="stroke-width: 0; stroke-dasharray: 1, 0;"/></marker><marker id="export-svg_flowchart-v2-circleEnd" class="marker flowchart-v2" viewBox="0 0 10 10" refY="5" refX="10.75" markerUnits="userSpaceOnUse" markerWidth="14" markerHeight="14" orient="auto"><circle cx="5" cy="5" r="5" class="arrowMarkerPath" style="stroke-width: 0; stroke-dasharray: 1, 0;"/></marker><marker id="export-svg_flowchart-v2-circleStart" class="marker flowchart-v2" viewBox="0 0 10 10" refX="0" refY="5" markerUnits="userSpaceOnUse" markerWidth="14" markerHeight="14" orient="auto"><circle cx="5" cy="5" r="5" class="arrowMarkerPath" style="stroke-width: 0; stroke-dasharray: 1, 0;"/></marker><marker id="export-svg_flowchart-v2-circleEnd-margin" class="marker flowchart-v2" viewBox="0 0 10 10" refY="5" refX="12.25" markerUnits="userSpaceOnUse" markerWidth="14" markerHeight="14" orient="auto"><circle cx="5" cy="5" r="5" class="arrowMarkerPath" style="stroke-width: 0; stroke-dasharray: 1, 0;"/></marker><marker id="export-svg_flowchart-v2-circleStart-margin" class="marker flowchart-v2" viewBox="0 0 10 10" refX="-2" refY="5" markerUnits="userSpaceOnUse" markerWidth="14" markerHeight="14" orient="auto"><circle cx="5" cy="5" r="5" class="arrowMarkerPath" style="stroke-width: 0; stroke-dasharray: 1, 0;"/></marker><marker id="export-svg_flowchart-v2-crossEnd" class="marker cross flowchart-v2" viewBox="0 0 15 15" refX="17.7" refY="7.5" markerUnits="userSpaceOnUse" markerWidth="12" markerHeight="12" orient="auto"><path d="M 1,1 L 14,14 M 1,14 L 14,1" class="arrowMarkerPath" style="stroke-width: 2.5;"/></marker><marker id="export-svg_flowchart-v2-crossStart" class="marker cross flowchart-v2" viewBox="0 0 15 15" refX="-3.5" refY="7.5" markerUnits="userSpaceOnUse" markerWidth="12" markerHeight="12" orient="auto"><path d="M 1,1 L 14,14 M 1,14 L 14,1" class="arrowMarkerPath" style="stroke-width: 2.5; stroke-dasharray: 1, 0;"/></marker><marker id="export-svg_flowchart-v2-crossEnd-margin" class="marker cross flowchart-v2" viewBox="0 0 15 15" refX="17.7" refY="7.5" markerUnits="userSpaceOnUse" markerWidth="12" markerHeight="12" orient="auto"><path d="M 1,1 L 14,14 M 1,14 L 14,1" class="arrowMarkerPath" style="stroke-width: 2.5;"/></marker><marker id="export-svg_flowchart-v2-crossStart-margin" class="marker cross flowchart-v2" viewBox="0 0 15 15" refX="-3.5" refY="7.5" markerUnits="userSpaceOnUse" markerWidth="12" markerHeight="12" orient="auto"><path d="M 1,1 L 14,14 M 1,14 L 14,1" class="arrowMarkerPath" style="stroke-width: 2.5; stroke-dasharray: 1, 0;"/></marker><g class="root"><g class="clusters"/><g class="edgePaths"><path d="M511.1171875,298.5225524902344L511.1171875,343.0225524902344L511.1171875,383.5225524902344" id="export-svg-L_main_renderer_0" class="edge-thickness-normal edge-pattern-dotted edge-thickness-normal edge-pattern-solid flowchart-link" style="stroke-dasharray: 0 0 2 2 2 2 2 2 2 2 2 2 2 2 2 2 2 2 2 2 2 2 2 2 2 2 2 2 2 2 2 2 2 2 2 2 2 2 2 2 2 2 4; stroke-dashoffset: 0;;" data-edge="true" data-et="edge" data-id="L_main_renderer_0" data-points="W3sieCI6NTExLjExNzE4NzUsInkiOjI5OC41MjI1NTI0OTAyMzQ0fSx7IngiOjUxMS4xMTcxODc1LCJ5IjozNDMuMDIyNTUyNDkwMjM0NH0seyJ4Ijo1MTEuMTE3MTg3NSwieSI6Mzg3LjUyMjU1MjQ5MDIzNDR9XQ==" data-look="neo" marker-end="url(#export-svg_flowchart-v2-pointEnd-margin)"/></g><g class="edgeLabels"><g class="edgeLabel" transform="translate(511.1171875, 343.0225524902344)"><g class="label" data-id="L_main_renderer_0" transform="translate(-83, -19.5)"><foreignObject width="166" height="39"><div style="display: table-cell; white-space: normal; overflow-wrap: break-word; line-height: 1.5; max-width: 200px; text-align: center;" xmlns="http://www.w3.org/1999/xhtml" class="labelBkg"><span class="edgeLabel"><p><svg xmlns="http://www.w3.org/2000/svg" width="1.31em" height="1em" viewBox="0 0 1792 1376" class="label-icon"><path fill="currentColor" d="M1792 928v192q0 13-9.5 22.5t-22.5 9.5H384v192q0 13-9.5 22.5T352 1376q-12 0-24-10L9 1046q-9-9-9-22q0-14 9-23l320-320q9-9 23-9q13 0 22.5 9.5T384 704v192h1376q13 0 22.5 9.5t9.5 22.5m0-544q0 14-9 23l-320 320q-9 9-23 9q-13 0-22.5-9.5T1408 704V512H32q-13 0-22.5-9.5T0 480V288q0-13 9.5-22.5T32 256h1376V64q0-14 9-23t23-9q12 0 24 10l319 319q9 9 9 23"/></svg>  IPC via contextBridge<br />tick / itemError / status</p></span></div></foreignObject></g></g></g><g class="nodes"><g class="root" transform="translate(282.25, 379.5225524902344)"><g class="clusters"><g class="cluster" id="export-svg-renderer" data-id="renderer" data-et="cluster" data-look="neo"><rect style="" x="8" y="8" width="441.734375" height="276"/><g class="cluster-label" transform="translate(129.4765625, 8)"><foreignObject width="198.78125" height="19.5"><div style="display: table-cell; white-space: normal; overflow-wrap: break-word; line-height: 1.5;" xmlns="http://www.w3.org/1999/xhtml"><span class="nodeLabel"><p><svg xmlns="http://www.w3.org/2000/svg" width="1.13em" height="1em" viewBox="0 0 576 512" class="label-icon"><path fill="currentColor" d="M64 0C28.7 0 0 28.7 0 64v288c0 35.3 28.7 64 64 64h176l-10.7 32H160c-17.7 0-32 14.3-32 32s14.3 32 32 32h256c17.7 0 32-14.3 32-32s-14.3-32-32-32h-69.3L336 416h176c35.3 0 64-28.7 64-64V64c0-35.3-28.7-64-64-64zm448 64v224H64V64z"/></svg>  Renderer (React + Zustand)</p></span></div></foreignObject></g></g></g><g class="edgePaths"><path d="M165.20703125,83.03770701344892L96.49825628519321,121.64964057153087Q87.8671875,126.5 87.8671875,136.4005724561803L87.8671875,179.5" id="export-svg-L_app_ir_0" class="edge-thickness-normal edge-pattern-solid edge-thickness-normal edge-pattern-solid flowchart-link" style="stroke-dasharray: 0 0 135.93516540527344 4; stroke-dashoffset: 0;;" data-edge="true" data-et="edge" data-id="L_app_ir_0" data-points="W3sieCI6MTY1LjIwNzAzMTI1LCJ5Ijo4My4wMzc3MDcwMTM0NDg5Mn0seyJ4Ijo4Ny44NjcxODc1LCJ5IjoxMjYuNX0seyJ4Ijo4Ny44NjcxODc1LCJ5IjoxODMuNX1d" data-look="neo" marker-end="url(#export-svg_flowchart-v2-pointEnd-margin)"/><path d="M221.39453125,83.03770701344892L290.1033062148068,121.64964057153087Q298.734375,126.5 298.734375,136.4005724561803L298.734375,160" id="export-svg-L_app_modals_0" class="edge-thickness-normal edge-pattern-solid edge-thickness-normal edge-pattern-solid flowchart-link" style="stroke-dasharray: 0 0 116.43521118164062 4; stroke-dashoffset: 0;;" data-edge="true" data-et="edge" data-id="L_app_modals_0" data-points="W3sieCI6MjIxLjM5NDUzMTI1LCJ5Ijo4My4wMzc3MDcwMTM0NDg5Mn0seyJ4IjoyOTguNzM0Mzc1LCJ5IjoxMjYuNX0seyJ4IjoyOTguNzM0Mzc1LCJ5IjoxNjR9XQ==" data-look="neo" marker-end="url(#export-svg_flowchart-v2-pointEnd-margin)"/></g><g class="edgeLabels"><g class="edgeLabel"><g class="label" data-id="L_app_ir_0" transform="translate(0, 0)"><foreignObject width="0" height="0"><div style="display: table-cell; white-space: normal; overflow-wrap: break-word; line-height: 1.5; max-width: 200px; text-align: center;" xmlns="http://www.w3.org/1999/xhtml" class="labelBkg"><span class="edgeLabel"></span></div></foreignObject></g></g><g class="edgeLabel"><g class="label" data-id="L_app_modals_0" transform="translate(0, 0)"><foreignObject width="0" height="0"><div style="display: table-cell; white-space: normal; overflow-wrap: break-word; line-height: 1.5; max-width: 200px; text-align: center;" xmlns="http://www.w3.org/1999/xhtml" class="labelBkg"><span class="edgeLabel"></span></div></foreignObject></g></g></g><g class="nodes"><g class="node default accent" id="export-svg-flowchart-app-11" data-look="neo" data-id="app" data-node="true" data-et="node" transform="translate(193.30078125, 67.25)"><rect class="basic label-container" style="stroke:#B45309 !important;stroke-width:2px !important" data-id="app" x="-28.09375" y="-21.75" width="56.1875" height="43.5" stroke="url(#gradient)"/><g class="label" style="color:#B45309 !important" transform="translate(-12.09375, -9.75)"><rect/><foreignObject width="24.1875" height="19.5"><div style="color: rgb(180, 83, 9) !important; display: table-cell; white-space: normal; overflow-wrap: break-word; line-height: 1.5; max-width: 200px; text-align: center;" xmlns="http://www.w3.org/1999/xhtml"><span style="color:#B45309 !important" class="nodeLabel"><p>App</p></span></div></foreignObject></g></g><g class="node default" id="export-svg-flowchart-ir-12" data-look="neo" data-id="ir" data-node="true" data-et="node" transform="translate(87.8671875, 205.25)"><rect class="basic label-container" style="" data-id="ir" x="-44.8671875" y="-21.75" width="89.734375" height="43.5" stroke="url(#gradient)"/><g class="label" style="" transform="translate(-28.8671875, -9.75)"><rect/><foreignObject width="57.734375" height="19.5"><div style="display: table-cell; white-space: normal; overflow-wrap: break-word; line-height: 1.5; max-width: 200px; text-align: center;" xmlns="http://www.w3.org/1999/xhtml"><span class="nodeLabel"><p>ItemRow</p></span></div></foreignObject></g></g><g class="node default" id="export-svg-flowchart-modals-13" data-look="neo" data-id="modals" data-node="true" data-et="node" transform="translate(298.734375, 205.25)"><rect class="basic label-container" style="" data-id="modals" x="-116" y="-41.25" width="232" height="82.5" stroke="url(#gradient)"/><g class="label" style="" transform="translate(-100, -29.25)"><rect/><foreignObject width="200" height="58.5"><div style="display: table; white-space: break-spaces; overflow-wrap: break-word; line-height: 1.5; max-width: 200px; text-align: center; width: 200px;" xmlns="http://www.w3.org/1999/xhtml"><span class="nodeLabel"><p>AddItemModal / ListEditModal<br />SettingsModal / SymbolAutocomplete</p></span></div></foreignObject></g></g></g></g><g class="root" transform="translate(0, 0)"><g class="clusters"><g class="cluster" id="export-svg-main" data-id="main" data-et="cluster" data-look="neo"><rect style="" x="8" y="8" width="1006.234375" height="290.5225601196289"/><g class="cluster-label" transform="translate(427.625, 8)"><foreignObject width="166.984375" height="19.5"><div style="display: table-cell; white-space: normal; overflow-wrap: break-word; line-height: 1.5;" xmlns="http://www.w3.org/1999/xhtml"><span class="nodeLabel"><p><svg xmlns="http://www.w3.org/2000/svg" width="1.08em" height="1em" viewBox="0 0 1920 1792" class="label-icon"><path fill="currentColor" d="M896 896q0-106-75-181t-181-75t-181 75t-75 181t75 181t181 75t181-75t75-181m768 512q0-52-38-90t-90-38t-90 38t-38 90q0 53 37.5 90.5t90.5 37.5t90.5-37.5t37.5-90.5m0-1024q0-52-38-90t-90-38t-90 38t-38 90q0 53 37.5 90.5T1536 512t90.5-37.5T1664 384m-384 421v185q0 10-7 19.5t-16 10.5l-155 24q-11 35-32 76q34 48 90 115q7 11 7 20q0 12-7 19q-23 30-82.5 89.5T999 1423q-11 0-21-7l-115-90q-37 19-77 31q-11 108-23 155q-7 24-30 24H547q-11 0-20-7.5t-10-17.5l-23-153q-34-10-75-31l-118 89q-7 7-20 7q-11 0-21-8q-144-133-144-160q0-9 7-19q10-14 41-53t47-61q-23-44-35-82l-152-24q-10-1-17-9.5T0 987V802q0-10 7-19.5T23 772l155-24q11-35 32-76q-34-48-90-115q-7-11-7-20q0-12 7-20q22-30 82-89t79-59q11 0 21 7l115 90q34-18 77-32q11-108 23-154q7-24 30-24h186q11 0 20 7.5t10 17.5l23 153q34 10 75 31l118-89q8-7 20-7q11 0 21 8q144 133 144 160q0 8-7 19q-12 16-42 54t-45 60q23 48 34 82l152 23q10 2 17 10.5t7 19.5m640 533v140q0 16-149 31q-12 27-30 52q51 113 51 138q0 4-4 7q-122 71-124 71q-8 0-46-47t-52-68q-20 2-30 2t-30-2q-14 21-52 68t-46 47q-2 0-124-71q-4-3-4-7q0-25 51-138q-18-25-30-52q-149-15-149-31v-140q0-16 149-31q13-29 30-52q-51-113-51-138q0-4 4-7q4-2 35-20t59-34t30-16q8 0 46 46.5t52 67.5q20-2 30-2t30 2q51-71 92-112l6-2q4 0 124 70q4 3 4 7q0 25-51 138q17 23 30 52q149 15 149 31m0-1024v140q0 16-149 31q-12 27-30 52q51 113 51 138q0 4-4 7q-122 71-124 71q-8 0-46-47t-52-68q-20 2-30 2t-30-2q-14 21-52 68t-46 47q-2 0-124-71q-4-3-4-7q0-25 51-138q-18-25-30-52q-149-15-149-31V314q0-16 149-31q13-29 30-52q-51-113-51-138q0-4 4-7q4-2 35-20t59-34t30-16q8 0 46 46.5t52 67.5q20-2 30-2t30 2q51-71 92-112l6-2q4 0 124 70q4 3 4 7q0 25-51 138q17 23 30 52q149 15 149 31"/></svg>  Main Process (Node.js)</p></span></div></foreignObject></g></g></g><g class="edgePaths"><path d="M210.97571331521738,108.5L100.05628632112966,143.45844053854987Q91.9921875,146 91.9921875,154.45512946636723L91.9921875,180.03672409057617" id="export-svg-L_ps_binance_0" class="edge-thickness-normal edge-pattern-solid edge-thickness-normal edge-pattern-solid flowchart-link" style="stroke-dasharray: 0 0 152.6549072265625 4; stroke-dashoffset: 0;;" data-edge="true" data-et="edge" data-id="L_ps_binance_0" data-points="W3sieCI6MjEwLjk3NTcxMzMxNTIxNzM4LCJ5IjoxMDguNX0seyJ4Ijo5MS45OTIxODc1LCJ5IjoxNDZ9LHsieCI6OTEuOTkyMTg3NSwieSI6MTg0LjAzNjcyNDA5MDU3NjE3fV0=" data-look="neo" marker-end="url(#export-svg_flowchart-v2-pointEnd-margin)"/><path d="M277.5672554347826,108.5L247.04252606778016,137.32746041160883Q237.859375,146 237.859375,158.6310413840619L237.859375,180.43984985351562" id="export-svg-L_ps_gateio_0" class="edge-thickness-normal edge-pattern-solid edge-thickness-normal edge-pattern-solid flowchart-link" style="stroke-dasharray: 0 0 83.6925277709961 4; stroke-dashoffset: 0;;" data-edge="true" data-et="edge" data-id="L_ps_gateio_0" data-points="W3sieCI6Mjc3LjU2NzI1NTQzNDc4MjYsInkiOjEwOC41fSx7IngiOjIzNy44NTkzNzUsInkiOjE0Nn0seyJ4IjoyMzcuODU5Mzc1LCJ5IjoxODQuNDM5ODQ5ODUzNTE1NjJ9XQ==" data-look="neo" marker-end="url(#export-svg_flowchart-v2-pointEnd-margin)"/><path d="M344.2764945652174,108.5L374.80122393221984,137.32746041160883Q383.984375,146 383.984375,158.6310413840619L383.984375,179.98443603515625" id="export-svg-L_ps_finnhub_0" class="edge-thickness-normal edge-pattern-solid edge-thickness-normal edge-pattern-solid flowchart-link" style="stroke-dasharray: 0 0 83.23713684082031 4; stroke-dashoffset: 0;;" data-edge="true" data-et="edge" data-id="L_ps_finnhub_0" data-points="W3sieCI6MzQ0LjI3NjQ5NDU2NTIxNzQsInkiOjEwOC41fSx7IngiOjM4My45ODQzNzUsInkiOjE0Nn0seyJ4IjozODMuOTg0Mzc1LCJ5IjoxODMuOTg0NDM2MDM1MTU2MjV9XQ==" data-look="neo" marker-end="url(#export-svg_flowchart-v2-pointEnd-margin)"/><path d="M413.2861752717391,108.5L527.1044523884217,143.5246689486269Q535.1484375,146 535.1484375,154.41623195314776L535.1484375,179.5" id="export-svg-L_ps_tv_0" class="edge-thickness-normal edge-pattern-solid edge-thickness-normal edge-pattern-solid flowchart-link" style="stroke-dasharray: 0 0 154.85507202148438 4; stroke-dashoffset: 0;;" data-edge="true" data-et="edge" data-id="L_ps_tv_0" data-points="W3sieCI6NDEzLjI4NjE3NTI3MTczOTEsInkiOjEwOC41fSx7IngiOjUzNS4xNDg0Mzc1LCJ5IjoxNDZ9LHsieCI6NTM1LjE0ODQzNzUsInkiOjE4My41fV0=" data-look="neo" marker-end="url(#export-svg_flowchart-v2-pointEnd-margin)"/></g><g class="edgeLabels"><g class="edgeLabel"><g class="label" data-id="L_ps_binance_0" transform="translate(0, 0)"><foreignObject width="0" height="0"><div style="display: table-cell; white-space: normal; overflow-wrap: break-word; line-height: 1.5; max-width: 200px; text-align: center;" xmlns="http://www.w3.org/1999/xhtml" class="labelBkg"><span class="edgeLabel"></span></div></foreignObject></g></g><g class="edgeLabel"><g class="label" data-id="L_ps_gateio_0" transform="translate(0, 0)"><foreignObject width="0" height="0"><div style="display: table-cell; white-space: normal; overflow-wrap: break-word; line-height: 1.5; max-width: 200px; text-align: center;" xmlns="http://www.w3.org/1999/xhtml" class="labelBkg"><span class="edgeLabel"></span></div></foreignObject></g></g><g class="edgeLabel"><g class="label" data-id="L_ps_finnhub_0" transform="translate(0, 0)"><foreignObject width="0" height="0"><div style="display: table-cell; white-space: normal; overflow-wrap: break-word; line-height: 1.5; max-width: 200px; text-align: center;" xmlns="http://www.w3.org/1999/xhtml" class="labelBkg"><span class="edgeLabel"></span></div></foreignObject></g></g><g class="edgeLabel"><g class="label" data-id="L_ps_tv_0" transform="translate(0, 0)"><foreignObject width="0" height="0"><div style="display: table-cell; white-space: normal; overflow-wrap: break-word; line-height: 1.5; max-width: 200px; text-align: center;" xmlns="http://www.w3.org/1999/xhtml" class="labelBkg"><span class="edgeLabel"></span></div></foreignObject></g></g></g><g class="nodes"><g class="node default accent" id="export-svg-flowchart-ps-0" data-look="neo" data-id="ps" data-node="true" data-et="node" transform="translate(310.921875, 77)"><rect class="basic label-container" style="stroke:#B45309 !important;stroke-width:2px !important" data-id="ps" x="-105.0546875" y="-31.5" width="210.109375" height="63" stroke="url(#gradient)"/><g class="label" style="color:#B45309 !important" transform="translate(-89.0546875, -19.5)"><rect/><foreignObject width="178.109375" height="39"><div style="color: rgb(180, 83, 9) !important; display: table-cell; white-space: normal; overflow-wrap: break-word; line-height: 1.5; max-width: 200px; text-align: center;" xmlns="http://www.w3.org/1999/xhtml"><span style="color:#B45309 !important" class="nodeLabel"><p><svg xmlns="http://www.w3.org/2000/svg" width="0.88em" height="1em" viewBox="0 0 448 512" class="label-icon"><path fill="currentColor" d="M0 64c0-17.7 14.3-32 32-32c229.8 0 416 186.2 416 416c0 17.7-14.3 32-32 32s-32-14.3-32-32C384 253.6 226.4 96 32 96C14.3 96 0 81.7 0 64m0 352a64 64 0 1 1 128 0a64 64 0 1 1-128 0m32-256c159.1 0 288 128.9 288 288c0 17.7-14.3 32-32 32s-32-14.3-32-32c0-123.7-100.3-224-224-224c-17.7 0-32-14.3-32-32s14.3-32 32-32"/></svg>  priceService<br />adapter chain + source hint</p></span></div></foreignObject></g></g><g class="node default" id="export-svg-flowchart-binance-4" data-look="neo" data-id="binance" data-node="true" data-et="node" transform="translate(91.9921875, 222.26128005981445)"><path d="M0,10.985565132086048 a48.9921875,10.985565132086048 0,0,0 97.984375,0 a48.9921875,10.985565132086048 0,0,0 -97.984375,0 l0,54.48556513208605 a48.9921875,10.985565132086048 0,0,0 97.984375,0 l0,-54.48556513208605" class="basic label-container outer-path" style="" transform="translate(-48.9921875, -38.22834769812907)"/><g class="label" style="" transform="translate(-36.9921875, -2.25)"><rect/><foreignObject width="73.984375" height="19.5"><div style="display: table-cell; white-space: normal; overflow-wrap: break-word; line-height: 1.5; max-width: 200px; text-align: center;" xmlns="http://www.w3.org/1999/xhtml"><span class="nodeLabel"><p>Binance WS</p></span></div></foreignObject></g></g><g class="node default" id="export-svg-flowchart-gateio-6" data-look="neo" data-id="gateio" data-node="true" data-et="node" transform="translate(237.859375, 222.26128005981445)"><path d="M0,10.714285714285714 a46.875,10.714285714285714 0,0,0 93.75,0 a46.875,10.714285714285714 0,0,0 -93.75,0 l0,54.214285714285715 a46.875,10.714285714285714 0,0,0 93.75,0 l0,-54.214285714285715" class="basic label-container outer-path" style="" transform="translate(-46.875, -37.82142857142857)"/><g class="label" style="" transform="translate(-34.875, -2.25)"><rect/><foreignObject width="69.75" height="19.5"><div style="display: table-cell; white-space: normal; overflow-wrap: break-word; line-height: 1.5; max-width: 200px; text-align: center;" xmlns="http://www.w3.org/1999/xhtml"><span class="nodeLabel"><p>Gate.io WS</p></span></div></foreignObject></g></g><g class="node default" id="export-svg-flowchart-finnhub-8" data-look="neo" data-id="finnhub" data-node="true" data-et="node" transform="translate(383.984375, 222.26128005981445)"><path d="M0,11.017897091722595 a49.25,11.017897091722595 0,0,0 98.5,0 a49.25,11.017897091722595 0,0,0 -98.5,0 l0,54.517897091722595 a49.25,11.017897091722595 0,0,0 98.5,0 l0,-54.517897091722595" class="basic label-container outer-path" style="" transform="translate(-49.25, -38.27684563758389)"/><g class="label" style="" transform="translate(-37.25, -2.25)"><rect/><foreignObject width="74.5" height="19.5"><div style="display: table-cell; white-space: normal; overflow-wrap: break-word; line-height: 1.5; max-width: 200px; text-align: center;" xmlns="http://www.w3.org/1999/xhtml"><span class="nodeLabel"><p>Finnhub WS</p></span></div></foreignObject></g></g><g class="node default" id="export-svg-flowchart-tv-10" data-look="neo" data-id="tv" data-node="true" data-et="node" transform="translate(535.1484375, 222.26128005981445)"><path d="M0,11.343461932400137 a51.9140625,11.343461932400137 0,0,0 103.828125,0 a51.9140625,11.343461932400137 0,0,0 -103.828125,0 l0,54.84346193240014 a51.9140625,11.343461932400137 0,0,0 103.828125,0 l0,-54.84346193240014" class="basic label-container outer-path" style="" transform="translate(-51.9140625, -38.765192898600205)"/><g class="label" style="" transform="translate(-39.9140625, -2.25)"><rect/><foreignObject width="79.828125" height="19.5"><div style="display: table-cell; white-space: normal; overflow-wrap: break-word; line-height: 1.5; max-width: 200px; text-align: center;" xmlns="http://www.w3.org/1999/xhtml"><span class="nodeLabel"><p>TradingView</p></span></div></foreignObject></g></g><g class="node default" id="export-svg-flowchart-cs-1" data-look="neo" data-id="cs" data-node="true" data-et="node" transform="translate(722.6171875, 222.26128005981445)"><rect class="basic label-container" style="" data-id="cs" x="-85.5546875" y="-31.5" width="171.109375" height="63" stroke="url(#gradient)"/><g class="label" style="" transform="translate(-69.5546875, -19.5)"><rect/><foreignObject width="139.109375" height="39"><div style="display: table-cell; white-space: normal; overflow-wrap: break-word; line-height: 1.5; max-width: 200px; text-align: center;" xmlns="http://www.w3.org/1999/xhtml"><span class="nodeLabel"><p>configStore<br />debounced disk write</p></span></div></foreignObject></g></g><g class="node default" id="export-svg-flowchart-wm-2" data-look="neo" data-id="wm" data-node="true" data-et="node" transform="translate(918.703125, 222.26128005981445)"><rect class="basic label-container" style="" data-id="wm" x="-60.53125" y="-31.5" width="121.0625" height="63" stroke="url(#gradient)"/><g class="label" style="" transform="translate(-44.53125, -19.5)"><rect/><foreignObject width="89.0625" height="39"><div style="display: table-cell; white-space: normal; overflow-wrap: break-word; line-height: 1.5; max-width: 200px; text-align: center;" xmlns="http://www.w3.org/1999/xhtml"><span class="nodeLabel"><p>windowMgr<br />menu + modal</p></span></div></foreignObject></g></g></g></g></g></g></g><defs><filter id="export-svg-drop-shadow" height="130%" width="130%"><feDropShadow dx="4" dy="4" stdDeviation="0" flood-opacity="0.06" flood-color="#000000"/></filter></defs><defs><filter id="export-svg-drop-shadow-small" height="150%" width="150%"><feDropShadow dx="2" dy="2" stdDeviation="0" flood-opacity="0.06" flood-color="#000000"/></filter></defs><linearGradient id="export-svg-gradient" gradientUnits="objectBoundingBox" x1="0%" y1="0%" x2="100%" y2="0%"><stop offset="0%" stop-color="#E4E4E7" stop-opacity="1"/><stop offset="100%" stop-color="hsl(-60, 0%, 87.8431372549%)" stop-opacity="1"/></linearGradient></svg>